# xmcd CD database file
#
# Track frame offsets:
#	150
#	15080
#	38293
#	61681
#	72459
#	94732
#	115784
#	134261
#	140740
#	154317
#	174767
#	186848
#	207213
#	231002
#	242422
#	253792
#	295920
#	321273
#
# Disc length: 4557 seconds
#
# Revision: 0
# Processed by: cddbd v1.5.2PL0 Copyright (c) Steve Scherf et al.
# Submitted via: CDex 1.70beta2
#
DISCID=ef11cb12
DTITLE=George Duke - Keyboard Giant
DYEAR=2007
DGENRE=Jazz
TTITLE0=The Opening
TTITLE1=Capricorn
TTITLE2=Maria Tres Filhos
TTITLE3=Faces In Reflection No2
TTITLE4=Dawn
TTITLE5=For Love (I Come Your Friend)
TTITLE6=Malibu
TTITLE7=The Aura
TTITLE8=Chariot
TTITLE9=Sister Serene
TTITLE10=Someday
TTITLE11=Seeing You
TTITLE12=I Cn Hear That
TTITLE13=After The Love
TTITLE14=Tzina (Excerpts From Act II Scene II)
TTITLE15=Liberated Fantasies
TTITLE16=Feel
TTITLE17=Yana Aminah
EXTD=YEAR: 2007
EXTT0=
EXTT1=
EXTT2=
EXTT3=
EXTT4=
EXTT5=
EXTT6=
EXTT7=
EXTT8=
EXTT9=
EXTT10=
EXTT11=
EXTT12=
EXTT13=
EXTT14=
EXTT15=
EXTT16=
EXTT17=
PLAYORDER=
